<?xml version="1.0" encoding="utf-8"?>
<!-- Generator: Adobe Illustrator 15.1.0, SVG Export Plug-In . SVG Version: 6.00 Build 0)  -->
<!DOCTYPE svg PUBLIC "-//W3C//DTD SVG 1.1//EN" "http://www.w3.org/Graphics/SVG/1.1/DTD/svg11.dtd">
<svg version="1.1" id="Layer_1" xmlns="http://www.w3.org/2000/svg" xmlns:xlink="http://www.w3.org/1999/xlink" x="0px" y="0px"
	 width="276px" height="276px" viewBox="0 0 276 276" enable-background="new 0 0 276 276" xml:space="preserve">
<path id="path928-0" fill="none" stroke="#497DBF" stroke-width="1.5" stroke-linejoin="round" d="M140.348,214.725l-61.286,0.037
	l-9.552-15.859"/>
<g id="ecolibb" transform="matrix(0.93294949,-0.17650525,0.17942632,0.93496151,32.768901,-22.39003)">
	<path id="rect922-7-0-0" fill="#A6CAEB" d="M-30.677,201.072l49.976,0.001c8.141-0.001,14.74,6.599,14.74,14.74l0,6.549
		c0,8.141-6.599,14.74-14.739,14.74l-49.977,0.001c-8.14-0.001-14.74-6.6-14.74-14.74l0.001-6.551
		C-45.418,207.671-38.819,201.073-30.677,201.072z"/>
	<path id="rect924-1-46-8" fill="#5386C5" d="M-27.642,204.409l44.825,0.001c6.692,0.001,12.118,5.424,12.117,12.117l0,5.381
		c0,6.693-5.425,12.118-12.118,12.118l-44.824,0c-6.692-0.001-12.117-5.425-12.117-12.118l0-5.381
		C-39.76,209.834-34.335,204.41-27.642,204.409z"/>
</g>
<g id="ecolia5" transform="matrix(0.95254,0,0,0.94898,71.645111,-26.338211)">
	<path id="rect910" fill="#FCD5D5" d="M-50.481,129.159l46.722-17.805c7.611-2.9,16.114,0.918,18.993,8.529l2.317,6.123
		c2.878,7.611-0.958,16.132-8.569,19.034l-46.722,17.805c-7.611,2.9-16.113-0.92-18.992-8.529l-2.316-6.123
		C-61.927,140.581-58.093,132.061-50.481,129.159z"/>
	<path id="rect912" fill="#F37F81" d="M-46.464,131.198l41.907-15.971c6.256-2.383,13.246,0.755,15.613,7.012l1.903,5.032
		c2.366,6.255-0.787,13.261-7.043,15.644l-41.907,15.971c-6.256,2.383-13.247-0.755-15.613-7.012l-1.903-5.03
		C-55.873,140.588-52.719,133.582-46.464,131.198z"/>
</g>
<circle fill="none" stroke="#808285" stroke-width="4" stroke-miterlimit="10" cx="138" cy="138" r="134.75"/>
<path id="path928" fill="none" stroke="#F37F81" stroke-width="1.5" stroke-linejoin="round" d="M125.332,40.524l38.792,0.074
	l11.198,24.722"/>
<g>
	<path id="rect840_1_" fill="#FFFFFF" stroke="#F37F81" stroke-width="1.9" stroke-linejoin="bevel" d="M73.749,32.313h61.859
		c1.171,0,2.121,1.159,2.121,2.589v35.554c0,1.431-0.95,2.589-2.121,2.589H73.749c-1.172,0-2.122-1.158-2.122-2.589V34.901
		C71.626,33.472,72.577,32.313,73.749,32.313z"/>
	<path id="path842_1_" fill="#F37F81" d="M81.664,65.337c-0.455-0.385-0.831-1.217-0.831-1.835c0-0.62,0.376-1.452,0.832-1.835
		c0.41-0.347,0.763-0.356,13.665-0.357c14.62,0,13.754-0.07,14.291,1.15c0.327,0.741,0.327,1.344,0,2.083
		c-0.537,1.222,0.329,1.152-14.291,1.15C82.427,65.693,82.075,65.685,81.664,65.337L81.664,65.337z M111.373,65.337
		c-0.455-0.385-0.833-1.217-0.833-1.835c0-0.62,0.378-1.452,0.833-1.835c0.408-0.346,0.739-0.356,10.721-0.356
		c9.982,0,10.312,0.011,10.722,0.356c0.455,0.383,0.831,1.215,0.831,1.835c0,0.618-0.376,1.45-0.832,1.835
		c-0.409,0.345-0.738,0.355-10.721,0.355S111.781,65.682,111.373,65.337L111.373,65.337z M94.076,57.479
		c-0.455-0.385-0.833-1.216-0.833-1.835c0-0.618,0.378-1.45,0.833-1.835c0.413-0.349,0.809-0.355,19.171-0.355
		c18.363,0,18.758,0.007,19.172,0.355c0.454,0.385,0.833,1.217,0.833,1.835c0,0.619-0.379,1.45-0.833,1.835
		c-0.414,0.349-0.81,0.356-19.172,0.356C94.883,57.836,94.489,57.828,94.076,57.479z M81.664,49.439
		c-0.455-0.384-0.831-1.216-0.831-1.835s0.376-1.451,0.832-1.834c0.41-0.348,0.752-0.356,12.146-0.357
		c12.942,0,12.238-0.064,12.773,1.149c0.327,0.741,0.327,1.344,0,2.084c-0.535,1.214,0.169,1.15-12.773,1.15
		C82.416,49.797,82.075,49.784,81.664,49.439L81.664,49.439z M108.466,49.439c-0.455-0.384-0.832-1.216-0.832-1.835
		s0.377-1.451,0.833-1.834c0.411-0.348,0.756-0.356,12.742-0.357c13.599,0,12.83-0.068,13.366,1.149
		c0.142,0.321,0.259,0.79,0.259,1.042s-0.116,0.721-0.259,1.042c-0.536,1.216,0.232,1.15-13.366,1.15
		C109.223,49.797,108.878,49.787,108.466,49.439L108.466,49.439z M75.854,41.399c-0.454-0.384-0.832-1.215-0.832-1.835
		c0-0.618,0.378-1.45,0.832-1.835c0.405-0.341,0.715-0.355,7.751-0.355s7.345,0.014,7.75,0.355c0.455,0.385,0.833,1.217,0.833,1.835
		c0,0.62-0.378,1.451-0.833,1.835c-0.404,0.342-0.714,0.356-7.75,0.356S76.26,41.741,75.854,41.399z M93.546,41.399
		c-0.454-0.384-0.831-1.215-0.831-1.835c0-0.618,0.377-1.45,0.832-1.835c0.409-0.345,0.738-0.355,10.589-0.355
		c9.852,0,10.18,0.011,10.59,0.355c0.454,0.385,0.832,1.217,0.832,1.835c0,0.62-0.378,1.451-0.833,1.835
		c-0.409,0.346-0.737,0.356-10.589,0.356S93.957,41.745,93.546,41.399L93.546,41.399z"/>
</g>
<g id="ecolibb_1_" transform="matrix(0.93294949,-0.17650525,0.17942632,0.93496151,32.768901,-22.39003)">
	<path id="rect922-7-0-0_1_" fill="#A6CAEB" d="M121.266,257.798l35.432-35.244c5.771-5.742,15.128-5.741,20.901,0.001l4.643,4.618
		c5.772,5.742,5.773,15.05,0,20.791l-35.43,35.247c-5.772,5.739-15.13,5.74-20.901-0.001l-4.644-4.621
		C115.495,272.848,115.495,263.54,121.266,257.798z"/>
	<path id="rect924-1-46-8_1_" fill="#5386C5" d="M125.783,258.012l31.781-31.613c4.744-4.719,12.435-4.719,17.181,0.001l3.815,3.795
		c4.745,4.72,4.745,12.371,0,17.091l-31.777,31.612c-4.745,4.719-12.437,4.719-17.183-0.001l-3.815-3.795
		C121.039,270.382,121.039,262.731,125.783,258.012z"/>
</g>
<g id="ecolia5_1_" transform="matrix(0.95254,0,0,0.94898,71.645111,-26.338211)">
	<path id="rect910_1_" fill="#FCD5D5" d="M98.335,94.72l47.848-14.484c7.795-2.36,16.012,2.046,18.353,9.84l1.884,6.271
		c2.341,7.793-2.079,16.025-9.873,18.384L108.7,129.216c-7.795,2.359-16.011-2.048-18.352-9.841l-1.883-6.271
		C86.122,105.31,90.542,97.079,98.335,94.72z"/>
	<path id="rect912_1_" fill="#F37F81" d="M102.201,97.036l42.917-12.991c6.407-1.939,13.161,1.683,15.086,8.089l1.548,5.153
		c1.925,6.407-1.709,13.174-8.116,15.113L110.72,125.39c-6.407,1.939-13.161-1.683-15.086-8.089l-1.548-5.153
		C92.16,105.741,95.795,98.975,102.201,97.036z"/>
</g>
<g id="g876" transform="matrix(0.99999541,0,0,0.99999541,-154.30832,-25.532956)">
	<path id="path874" fill="none" stroke="#010101" stroke-width="0.1834" stroke-miterlimit="4.2" d="M31.964,29.376"/>
</g>
<g id="g880" transform="matrix(0.99999541,0,0,0.99999541,-154.30832,-25.532956)">
	<path id="path878" fill="none" stroke="#010101" stroke-width="0.1834" stroke-miterlimit="4.2" d="M123.96,29.376"/>
</g>
<g>
	<path id="path6152-6" fill="none" stroke="#808285" stroke-width="2" stroke-miterlimit="4.2" d="M94.896,123.23H68.523"/>
	<path id="path6160-7" fill="none" stroke="#808285" stroke-width="2" stroke-miterlimit="4.2" d="M189.735,134.212
		c0.003,2.809-2.271,5.088-5.08,5.092s-5.088-2.271-5.093-5.079c0-0.004,0-0.009,0-0.013c-0.003-2.81,2.271-5.09,5.08-5.094
		c2.81-0.004,5.088,2.271,5.093,5.079C189.735,134.202,189.735,134.207,189.735,134.212z"/>
	<path id="path6162-8" fill="none" stroke="#808285" stroke-width="2" stroke-miterlimit="4.2" d="M216.108,134.212h-26.373"/>
	<path id="path6164-4" fill="none" stroke="#808285" stroke-width="2" stroke-miterlimit="4.2" d="M120.708,112.635v44.664
		C197.157,161.307,198.938,108.34,120.708,112.635L120.708,112.635z"/>
	<path id="path6166-1" fill="none" stroke="#808285" stroke-width="2" stroke-miterlimit="4.2" d="M94.896,123.23h25.001"/>
	<path id="path6168-7" fill="none" stroke="#808285" stroke-width="2" stroke-miterlimit="4.2" d="M84.152,146.172l35.745-0.469"/>
</g>
<g>
	<path id="rect840-6" fill="#FFFFFF" stroke="#5386C5" stroke-width="1.9" stroke-linejoin="bevel" d="M112.556,201.497h62.972
		c1.193,0,2.16,1.201,2.16,2.683v36.847c0,1.482-0.967,2.684-2.16,2.684h-62.972c-1.192,0-2.16-1.201-2.16-2.684V204.18
		C110.396,202.698,111.363,201.497,112.556,201.497z"/>
	<path id="path842-8" fill="#5386C5" d="M120.188,236.906c-0.467-0.412-0.854-1.307-0.854-1.973c0-0.665,0.387-1.561,0.856-1.973
		c0.421-0.373,0.785-0.384,14.053-0.385c15.037,0,14.145-0.075,14.698,1.237c0.336,0.797,0.336,1.444,0,2.241
		c-0.553,1.313,0.339,1.238-14.698,1.237C120.975,237.292,120.611,237.281,120.188,236.906z M150.742,236.906
		c-0.469-0.412-0.857-1.307-0.857-1.973c0-0.665,0.389-1.561,0.857-1.973c0.42-0.372,0.76-0.384,11.025-0.384
		s10.604,0.012,11.027,0.384c0.467,0.412,0.854,1.308,0.854,1.973c0,0.666-0.388,1.561-0.856,1.973
		c-0.421,0.372-0.76,0.385-11.025,0.385C151.501,237.291,151.162,237.278,150.742,236.906L150.742,236.906z M132.953,228.456
		c-0.467-0.412-0.856-1.308-0.856-1.973c0-0.666,0.389-1.562,0.856-1.974c0.426-0.375,0.833-0.383,19.717-0.383
		s19.291,0.008,19.716,0.383c0.468,0.412,0.856,1.308,0.856,1.974c0,0.665-0.389,1.561-0.856,1.973
		c-0.425,0.376-0.831,0.384-19.716,0.384C133.784,228.84,133.378,228.832,132.953,228.456z M120.188,219.809
		c-0.467-0.412-0.854-1.308-0.854-1.973c0-0.666,0.387-1.561,0.856-1.974c0.421-0.373,0.772-0.384,12.492-0.385
		c13.311,0,12.586-0.068,13.137,1.237c0.336,0.798,0.336,1.445,0,2.241c-0.551,1.306,0.174,1.237-13.137,1.237
		C120.962,220.193,120.611,220.18,120.188,219.809L120.188,219.809z M147.753,219.809c-0.468-0.412-0.854-1.308-0.854-1.973
		c0-0.666,0.387-1.561,0.855-1.974c0.423-0.373,0.778-0.384,13.105-0.385c13.984,0,13.193-0.073,13.746,1.237
		c0.146,0.346,0.266,0.85,0.266,1.121c0,0.27-0.119,0.774-0.266,1.12c-0.553,1.308,0.238,1.237-13.746,1.237
		C148.532,220.193,148.177,220.184,147.753,219.809L147.753,219.809z M114.214,211.161c-0.467-0.412-0.856-1.308-0.856-1.974
		s0.39-1.561,0.856-1.973c0.417-0.368,0.735-0.383,7.971-0.383c7.236,0,7.553,0.014,7.971,0.383
		c0.467,0.412,0.856,1.307,0.856,1.973s-0.389,1.562-0.856,1.974c-0.416,0.367-0.735,0.384-7.971,0.384
		C114.949,211.545,114.632,211.528,114.214,211.161L114.214,211.161z M132.41,211.161c-0.468-0.412-0.855-1.308-0.855-1.974
		s0.388-1.561,0.856-1.973c0.42-0.371,0.759-0.383,10.889-0.383c10.131,0,10.47,0.012,10.892,0.383
		c0.467,0.412,0.855,1.307,0.855,1.973s-0.389,1.562-0.857,1.974c-0.42,0.372-0.759,0.384-10.89,0.384
		C133.168,211.545,132.831,211.533,132.41,211.161L132.41,211.161z"/>
</g>
</svg>
